<mxfile host="drawio.corp.amazon.com" modified="2025-02-27T03:55:50.984Z" agent="Mozilla/5.0 (Macintosh; Intel Mac OS X 10_15_7) AppleWebKit/537.36 (KHTML, like Gecko) Chrome/133.0.0.0 Safari/537.36" etag="DKhJDX0t44f5Y2-1kTMq" version="21.7.4" type="device">
  <diagram name="Page-1" id="SWxfz6XXwvKfa3Z3_lBx">
    <mxGraphModel dx="2074" dy="1155" grid="1" gridSize="10" guides="1" tooltips="1" connect="1" arrows="1" fold="1" page="1" pageScale="1" pageWidth="850" pageHeight="1100" math="0" shadow="0">
      <root>
        <mxCell id="0" />
        <mxCell id="1" parent="0" />
        <mxCell id="i19Xn3r0LLWW8S5GzRKw-24" value="Query Writer Agent" style="rounded=1;whiteSpace=wrap;html=1;verticalAlign=bottom;fillColor=#dae8fc;strokeColor=#6c8ebf;" vertex="1" parent="1">
          <mxGeometry x="252.5" y="310" width="157.5" height="110" as="geometry" />
        </mxCell>
        <mxCell id="i19Xn3r0LLWW8S5GzRKw-23" value="Query Performance Agent" style="rounded=1;whiteSpace=wrap;html=1;verticalAlign=bottom;fillColor=#dae8fc;strokeColor=#6c8ebf;" vertex="1" parent="1">
          <mxGeometry x="670" y="670" width="155" height="120" as="geometry" />
        </mxCell>
        <mxCell id="i19Xn3r0LLWW8S5GzRKw-22" value="Results Eval Agent&lt;br&gt;(Manager)" style="rounded=1;whiteSpace=wrap;html=1;verticalAlign=bottom;fillColor=#dae8fc;strokeColor=#6c8ebf;" vertex="1" parent="1">
          <mxGeometry x="400" y="580" width="155" height="120" as="geometry" />
        </mxCell>
        <mxCell id="i19Xn3r0LLWW8S5GzRKw-25" style="edgeStyle=orthogonalEdgeStyle;rounded=0;orthogonalLoop=1;jettySize=auto;html=1;" edge="1" parent="1" source="i19Xn3r0LLWW8S5GzRKw-21" target="i19Xn3r0LLWW8S5GzRKw-22">
          <mxGeometry relative="1" as="geometry" />
        </mxCell>
        <mxCell id="i19Xn3r0LLWW8S5GzRKw-21" value="Execution Agent" style="rounded=1;whiteSpace=wrap;html=1;verticalAlign=bottom;fillColor=#dae8fc;strokeColor=#6c8ebf;" vertex="1" parent="1">
          <mxGeometry x="115" y="460" width="180" height="360" as="geometry" />
        </mxCell>
        <mxCell id="i19Xn3r0LLWW8S5GzRKw-7" value="Results" style="rounded=1;whiteSpace=wrap;html=1;verticalAlign=top;" vertex="1" parent="1">
          <mxGeometry x="135" y="588" width="140" height="200" as="geometry" />
        </mxCell>
        <mxCell id="i19Xn3r0LLWW8S5GzRKw-18" style="edgeStyle=orthogonalEdgeStyle;rounded=0;orthogonalLoop=1;jettySize=auto;html=1;entryX=0.5;entryY=0;entryDx=0;entryDy=0;" edge="1" parent="1" source="i19Xn3r0LLWW8S5GzRKw-1" target="i19Xn3r0LLWW8S5GzRKw-17">
          <mxGeometry relative="1" as="geometry" />
        </mxCell>
        <mxCell id="i19Xn3r0LLWW8S5GzRKw-1" value="Generate Question" style="rounded=1;whiteSpace=wrap;html=1;" vertex="1" parent="1">
          <mxGeometry x="270" y="100" width="120" height="60" as="geometry" />
        </mxCell>
        <mxCell id="i19Xn3r0LLWW8S5GzRKw-12" style="edgeStyle=orthogonalEdgeStyle;rounded=0;orthogonalLoop=1;jettySize=auto;html=1;entryX=0.5;entryY=0;entryDx=0;entryDy=0;exitX=0;exitY=0.5;exitDx=0;exitDy=0;" edge="1" parent="1" source="i19Xn3r0LLWW8S5GzRKw-2" target="i19Xn3r0LLWW8S5GzRKw-3">
          <mxGeometry relative="1" as="geometry" />
        </mxCell>
        <mxCell id="i19Xn3r0LLWW8S5GzRKw-2" value="Generate SQL" style="rounded=1;whiteSpace=wrap;html=1;" vertex="1" parent="1">
          <mxGeometry x="270" y="330" width="120" height="60" as="geometry" />
        </mxCell>
        <mxCell id="i19Xn3r0LLWW8S5GzRKw-13" style="edgeStyle=orthogonalEdgeStyle;rounded=0;orthogonalLoop=1;jettySize=auto;html=1;entryX=0.5;entryY=0;entryDx=0;entryDy=0;" edge="1" parent="1" source="i19Xn3r0LLWW8S5GzRKw-3" target="i19Xn3r0LLWW8S5GzRKw-7">
          <mxGeometry relative="1" as="geometry" />
        </mxCell>
        <mxCell id="i19Xn3r0LLWW8S5GzRKw-3" value="Execute SQL" style="rounded=1;whiteSpace=wrap;html=1;" vertex="1" parent="1">
          <mxGeometry x="145" y="480" width="120" height="60" as="geometry" />
        </mxCell>
        <mxCell id="i19Xn3r0LLWW8S5GzRKw-9" style="edgeStyle=orthogonalEdgeStyle;rounded=0;orthogonalLoop=1;jettySize=auto;html=1;entryX=1;entryY=0.5;entryDx=0;entryDy=0;exitX=0.5;exitY=0;exitDx=0;exitDy=0;" edge="1" parent="1" source="i19Xn3r0LLWW8S5GzRKw-4" target="i19Xn3r0LLWW8S5GzRKw-2">
          <mxGeometry relative="1" as="geometry" />
        </mxCell>
        <mxCell id="i19Xn3r0LLWW8S5GzRKw-10" value="SQL Incorrect" style="edgeLabel;html=1;align=center;verticalAlign=middle;resizable=0;points=[];" vertex="1" connectable="0" parent="i19Xn3r0LLWW8S5GzRKw-9">
          <mxGeometry x="-0.2867" y="1" relative="1" as="geometry">
            <mxPoint as="offset" />
          </mxGeometry>
        </mxCell>
        <mxCell id="i19Xn3r0LLWW8S5GzRKw-4" value="Results&lt;br&gt;Evaluation" style="rounded=1;whiteSpace=wrap;html=1;" vertex="1" parent="1">
          <mxGeometry x="415" y="608" width="120" height="60" as="geometry" />
        </mxCell>
        <mxCell id="i19Xn3r0LLWW8S5GzRKw-5" value="Result Set" style="rounded=1;whiteSpace=wrap;html=1;" vertex="1" parent="1">
          <mxGeometry x="145" y="698" width="120" height="60" as="geometry" />
        </mxCell>
        <mxCell id="i19Xn3r0LLWW8S5GzRKw-6" value="SQL Error" style="rounded=1;whiteSpace=wrap;html=1;" vertex="1" parent="1">
          <mxGeometry x="145" y="628" width="120" height="60" as="geometry" />
        </mxCell>
        <mxCell id="i19Xn3r0LLWW8S5GzRKw-16" value="Query&lt;br&gt;Performance" style="rounded=1;whiteSpace=wrap;html=1;" vertex="1" parent="1">
          <mxGeometry x="685" y="700" width="120" height="60" as="geometry" />
        </mxCell>
        <mxCell id="i19Xn3r0LLWW8S5GzRKw-19" style="edgeStyle=orthogonalEdgeStyle;rounded=0;orthogonalLoop=1;jettySize=auto;html=1;" edge="1" parent="1" source="i19Xn3r0LLWW8S5GzRKw-17" target="i19Xn3r0LLWW8S5GzRKw-2">
          <mxGeometry relative="1" as="geometry" />
        </mxCell>
        <mxCell id="i19Xn3r0LLWW8S5GzRKw-17" value="Question&amp;nbsp;&lt;br&gt;Refinement" style="rounded=1;whiteSpace=wrap;html=1;" vertex="1" parent="1">
          <mxGeometry x="270" y="200" width="120" height="60" as="geometry" />
        </mxCell>
      </root>
    </mxGraphModel>
  </diagram>
</mxfile>
